<svg width="1384" height="1" viewBox="0 0 1384 1" fill="none" xmlns="http://www.w3.org/2000/svg">
<path d="M13.1827 0.00508608C20.9382 -0.00793965 31.1045 0.00598959 38.8307 0.0251077C41.2521 0.0310372 40.026 0.0575412 41.6975 0.0628276C44.9667 0.073133 48.0123 0.0601347 51.243 0.072411C52.3136 0.0766091 50.9809 0.118592 52.1035 0.122032C58.2555 0.140587 64.0754 0.129894 70.3074 0.138819C101.004 0.182851 131.178 0.198614 162.251 0.217745C172.496 0.224017 184.951 0.262119 195.533 0.245458C196.768 0.243475 196.032 0.206625 196.267 0.203588C199.953 0.157092 198.728 0.231485 201.135 0.241369C210.688 0.280395 221.311 0.28379 230.505 0.26957C234.416 0.263412 230.495 0.190218 234.433 0.231301C234.706 0.234077 233.714 0.273209 234.787 0.277382C237.219 0.28677 241.834 0.279776 243.72 0.282876C247.353 0.28905 247.954 0.288656 251.391 0.289103C256.089 0.290053 261.677 0.309506 266.717 0.30064C267.793 0.298631 266.369 0.258516 268.085 0.25169C269.802 0.244874 274.346 0.248276 275.877 0.257733C277.41 0.267194 276.757 0.298723 277.028 0.30595C279.259 0.366949 284.515 0.282467 285.19 0.280378C297.52 0.244779 308.093 0.292907 319.666 0.292771C328.452 0.292565 337.846 0.276678 346.206 0.278857C356.166 0.281609 364.607 0.303347 374.283 0.299611C375.304 0.299263 374.107 0.252097 375.355 0.251577C388.605 0.24609 401.763 0.251232 414.957 0.283074C416.28 0.286309 414.575 0.32772 415.896 0.333428C423.99 0.367461 436.796 0.449217 441.602 0.268917C447.085 0.275958 453.74 0.283232 458.645 0.319577C461.807 0.342969 458.736 0.388082 462.62 0.368833C463.496 0.364544 462.357 0.325036 463.671 0.321592C469.203 0.307129 475.246 0.319972 480.719 0.29956C481.832 0.295315 481.528 0.259914 481.843 0.253539C484.494 0.201913 488.906 0.287255 489.868 0.293457C497.193 0.339701 502.542 0.321504 509.366 0.322633C510.949 0.322915 509.077 0.275364 510.601 0.273928C518.503 0.267113 526.69 0.271201 534.428 0.292301C536.149 0.297109 534.566 0.337614 535.388 0.341984C539.015 0.360759 539.819 0.284256 543.297 0.300786C544.031 0.304172 543.617 0.338847 543.751 0.342656C545.845 0.402437 547.663 0.317732 548.202 0.315862C555.013 0.29031 559.367 0.378738 565.946 0.366217C566.734 0.36463 564.959 0.320755 567.171 0.318976C581.913 0.306866 597.503 0.31892 612.095 0.354014C614.364 0.359412 612.744 0.392371 612.887 0.396434C615.214 0.459918 616.719 0.374857 617.459 0.371654C623.295 0.348595 628.746 0.419929 632.712 0.318616C657.427 0.353777 682.029 0.296886 706.541 0.387653C706.853 0.388704 706.294 0.430597 706.916 0.432514C714.402 0.456036 712.965 0.390928 717.918 0.311299C719.166 0.291304 722.962 0.387443 723.298 0.39449C724.522 0.420459 723.253 0.482783 723.663 0.487813C727.053 0.527305 726.501 0.321193 731.075 0.321127C731.218 0.32147 730.617 0.359408 731.001 0.36318C732.194 0.375022 733.377 0.359948 734.544 0.373007C737.215 0.403225 738.166 0.503377 742.247 0.44509C742.763 0.437525 741.974 0.32061 746.058 0.326133C747.686 0.328434 754.893 0.326431 756.913 0.334007C758.931 0.341575 757.545 0.379251 757.689 0.380882C763.125 0.430703 761.064 0.45135 763.787 0.525109C766.51 0.598589 765.755 0.423332 766.865 0.403771C767.977 0.384266 771.963 0.425371 772.942 0.43966C773.921 0.453956 772.7 0.477896 773.57 0.485986C779.341 0.538841 776.103 0.398995 778.005 0.37118C782.488 0.305317 785.98 0.435288 790.085 0.448024C791.195 0.451463 790.289 0.421862 791.278 0.419093C795.194 0.408522 797.55 0.449076 802.006 0.411892C802.735 0.405833 806.337 0.327691 808.669 0.385037C808.999 0.393306 808.06 0.425695 809.73 0.43295C812.223 0.443838 816.716 0.450918 819.397 0.440092C821.376 0.432082 819.107 0.378713 821.598 0.395292C822.705 0.402695 820.654 0.433916 822.733 0.445219C824.802 0.456519 830.092 0.455148 832.105 0.45407C834.114 0.452968 833.014 0.412486 833.176 0.409759C834.159 0.394136 838.015 0.374616 838.356 0.374664C855.543 0.369723 871.392 0.437962 888.126 0.415379C889.439 0.413665 888.564 0.370975 888.765 0.370274C893.26 0.352388 889.716 0.465889 892.856 0.50388C892.402 0.417251 894.256 0.432936 897.423 0.423436C898.949 0.418788 898.118 0.385244 898.257 0.38181C900.52 0.330862 902.096 0.396669 902.502 0.410131C904.001 0.459651 905.632 0.40114 906.652 0.43424C907.671 0.467093 905.325 0.515796 908.362 0.515172C909.214 0.484162 906.959 0.403124 909.265 0.38999C917.966 0.340311 934.206 0.403895 941.201 0.4105C948.183 0.4171 950.438 0.411379 954.506 0.422586C961.854 0.442851 959.161 0.382725 963.724 0.355205C968.3 0.327687 966.075 0.475624 966.733 0.507426C967.379 0.539214 968.084 0.506492 968.887 0.523967C969.688 0.541438 967.955 0.563061 969.838 0.569621C971.721 0.576175 976.873 0.519623 977.54 0.48637C978.952 0.415921 976.631 0.341982 981.616 0.367963C981.903 0.369504 980.972 0.408404 982.07 0.412335C990.79 0.442282 999.849 0.444139 1008.56 0.470626C1009.76 0.474329 1008.68 0.517603 1009.38 0.520247C1016.64 0.547927 1014.05 0.474961 1018.02 0.393906C1017.13 0.501773 1019.33 0.567768 1024.84 0.568405C1028.15 0.568826 1027.58 0.521715 1029.72 0.488511C1030.37 0.478501 1032.71 0.51085 1033.13 0.488694C1034.53 0.41627 1032.33 0.335196 1038.01 0.367479C1038.26 0.369013 1037.46 0.408657 1038.32 0.411058C1043.89 0.426774 1044.56 0.351019 1050.57 0.341846C1055.29 0.334648 1063.68 0.380842 1069.05 0.388356C1068.93 0.509631 1074 0.481861 1076.06 0.398244C1079.55 0.401668 1083.31 0.396941 1086.68 0.408499C1087.84 0.412439 1087.08 0.447552 1087.22 0.451346C1089.46 0.510861 1090.98 0.429511 1091.73 0.426322C1099.88 0.39532 1106.53 0.456977 1114.31 0.396722C1114.58 0.394551 1115.03 0.31031 1117.11 0.37182C1117.24 0.37606 1114.68 0.414388 1118.34 0.417352C1122 0.420323 1128.9 0.465483 1133.98 0.426447C1135.21 0.41705 1138.32 0.348663 1140.82 0.402095C1141.15 0.409351 1140.78 0.433511 1141.26 0.446956C1142.82 0.489795 1143.66 0.404649 1145.49 0.476985C1147.31 0.549319 1151.11 0.603492 1156.23 0.553585C1156.4 0.552134 1157.61 0.484647 1159.22 0.485715C1161.79 0.487476 1165.45 0.501535 1168.13 0.501096C1169.42 0.500861 1168.6 0.458955 1168.82 0.458189C1177.47 0.434707 1183.62 0.472066 1192.89 0.488281C1194.59 0.491336 1199.47 0.434191 1202.76 0.479371C1206.37 0.528828 1202.66 0.734562 1210.95 0.685548C1214.3 0.665943 1218.54 0.404933 1224.55 0.540163C1236.22 0.506655 1247.01 0.575866 1258.71 0.52802C1259.23 0.525901 1260.9 0.453055 1262.13 0.454046C1263.97 0.455659 1264.98 0.489706 1266.29 0.491949C1271.78 0.502205 1276.81 0.473076 1282.11 0.477608C1284.12 0.479254 1283.41 0.514458 1285.81 0.516426C1288.21 0.518361 1289.81 0.472004 1293.06 0.494393C1295.51 0.511459 1297.96 0.606212 1301.22 0.617257C1301.34 0.523794 1303.58 0.525719 1307.55 0.501047C1308.32 0.49626 1307.5 0.46373 1307.86 0.459788C1309.33 0.443022 1310.69 0.469982 1312.09 0.451731C1312.43 0.447348 1312.45 0.41543 1312.72 0.410045C1315.09 0.363039 1318.98 0.434837 1319.64 0.447338C1322.21 0.494814 1323.4 0.4533 1325.37 0.471996C1327.33 0.49069 1324.4 0.514058 1326.69 0.525402C1331.44 0.548866 1337.54 0.543711 1342.36 0.545179C1344.29 0.545567 1342.97 0.502961 1343.25 0.502027C1347.23 0.491221 1351.25 0.536542 1353.46 0.451674C1356.22 0.671112 1355.86 0.43039 1361.55 0.474319C1362 0.477872 1362.57 0.581642 1360.85 0.596877C1359.13 0.612097 1356.52 0.579659 1354.13 0.603407C1353.57 0.60898 1350.33 0.70622 1349.89 0.71211C1346.43 0.758145 1345.94 0.603073 1345.75 0.594556C1343.68 0.50264 1339.72 0.607398 1338.68 0.614636C1333.91 0.647803 1329.86 0.625995 1325.87 0.649669C1323.27 0.66497 1323.01 0.766547 1320.96 0.763438C1314.16 0.75316 1311.78 0.611459 1305.37 0.734323C1303.99 0.760527 1305.36 0.871548 1300.43 0.784249C1300.12 0.778745 1296.46 0.698882 1294.35 0.749397C1294.09 0.755767 1294.09 0.788122 1293.74 0.79084C1291.4 0.808421 1289.83 0.782645 1287.28 0.79499C1284.72 0.807335 1281.65 0.825739 1278.73 0.814764C1276.97 0.808202 1274.71 0.747919 1273.87 0.73316C1271.49 0.690644 1268.94 0.760352 1267.47 0.708868C1265.99 0.657124 1268.89 0.578544 1265 0.545111C1264.85 0.629173 1264.52 0.715454 1264.29 0.799993C1255.75 0.797032 1247.36 0.769849 1238.79 0.773562C1237.73 0.774107 1238.82 0.819299 1237.68 0.821047C1232.88 0.828227 1228.68 0.79601 1223.7 0.808839C1219.85 0.818943 1215.62 0.866791 1211.59 0.878845C1209.13 0.782655 1203.15 0.815308 1198.81 0.806518C1197.28 0.80348 1197.39 0.77779 1196.3 0.769408C1192.22 0.73841 1194.13 0.823414 1193.01 0.836791C1188.21 0.893882 1187.8 0.701483 1182.14 0.706236C1181.84 0.706423 1178.17 0.808979 1177.67 0.815366C1174.46 0.857011 1177.14 0.77967 1175.13 0.772092C1171.46 0.758244 1168.91 0.733752 1164.61 0.76379C1163.36 0.772688 1160.35 0.83661 1157.91 0.787166C1157.59 0.780692 1157.77 0.746793 1157.51 0.744808C1152.84 0.711716 1152.72 0.81823 1150.05 0.854304C1147.38 0.89037 1143.26 0.816841 1142.42 0.795649C1140.23 0.740826 1144.1 0.77222 1144.22 0.76684C1145.62 0.702817 1142.61 0.713839 1140.31 0.708429C1139.98 0.603991 1136.77 0.610259 1137.93 0.703241C1138.07 0.713397 1139.85 0.703658 1140.31 0.708429C1138.3 0.810898 1134.77 0.824021 1130.87 0.728265C1129.04 0.683386 1130.77 0.631059 1125.23 0.650201C1122.71 0.658842 1123.68 0.730753 1121.46 0.750359C1116.39 0.79509 1109.8 0.728009 1104.57 0.738578C1102.67 0.742415 1104.52 0.781779 1103.22 0.785757C1099.78 0.79644 1096.74 0.766904 1093.28 0.782033C1092.97 0.783454 1093.74 0.82466 1092.66 0.825185C1084.51 0.82997 1077.41 0.803577 1068.9 0.802844C1064.79 0.802509 1057.44 0.825235 1053.18 0.820665C1045.8 0.812989 1036.72 0.753068 1030.41 0.767624C1026.3 0.776941 1027.2 0.818155 1025.44 0.846236C1022.04 0.900669 1016.02 0.803167 1015.2 0.788069C1015.18 0.787569 1018.72 0.777854 1016.83 0.756697C1015.73 0.712614 1015.24 0.787878 1015.2 0.788069C1014.67 0.778316 1007.6 0.768959 1006.2 0.776838C1005.43 0.781143 1005.86 0.820192 1005.46 0.821699C996.009 0.856642 986.538 0.866566 976.949 0.848307C976.78 0.847518 977.034 0.803841 976.638 0.802531C971.086 0.78311 967.532 0.836542 962.953 0.868264C958.375 0.899973 954.745 0.889353 952.035 0.81437C948.581 0.82381 943.625 0.79066 940.774 0.770546C937.922 0.750431 937.524 0.835454 937.273 0.837134C929.447 0.890932 924.923 0.842266 916.804 0.834691C912.944 0.830944 905.288 0.843276 901.108 0.852573C897.805 0.860063 895.815 0.840137 892.772 0.852878C892.36 0.854579 892.776 0.892436 892.65 0.893893C889.254 0.939186 890.886 0.84664 890.185 0.830111C887.642 0.770005 886.072 0.737993 881.722 0.766268C880.719 0.772743 877.796 0.905996 875.967 0.913789C873.589 0.923676 874.487 0.875913 871.997 0.887483C871.784 0.888429 871.828 0.917895 870.292 0.916596C863.159 0.910952 855.382 0.893805 847.97 0.896758C846.957 0.897048 848.255 0.943787 846.792 0.944975C839.928 0.950515 832.404 0.948785 825.716 0.926907C824.07 0.921375 825.102 0.88865 824.745 0.878934C822.551 0.820141 819.44 0.905565 818.927 0.907192C806.682 0.948242 797.311 0.870933 784.831 0.907739C784.152 0.909899 778.923 1.00148 776.59 0.922936C776.43 0.91771 774.122 0.837356 772.081 0.892296C771.955 0.895733 773.393 0.9371 770.883 0.932884C768.373 0.928676 764.333 0.956301 760.883 0.910849C759.791 0.896531 757.209 0.816375 753.951 0.88027C753.739 0.884731 748.709 1.02921 746.914 0.929525C746.623 0.913116 746.927 0.807631 743.038 0.861715C742.296 0.8722 743.644 0.895728 741.687 0.91042C738.688 0.933064 734.714 0.904811 731.028 0.951801C730.385 0.96012 727.648 1.03172 725.452 0.977374C725.109 0.968863 725.762 0.933647 724.602 0.929706C719.089 0.910801 713.316 0.934356 707.718 0.90999C705.736 0.901428 706.749 0.844497 704.683 0.829241C702.615 0.813989 698.451 0.799318 696.288 0.825334C694.125 0.851361 696.488 0.942096 693.247 0.949356C679.158 0.980889 665.201 0.92766 651.132 0.919873C649.045 0.91871 650.775 0.951178 647.7 0.951794C636.363 0.954208 616.79 0.984649 606.953 0.915658C599.071 0.8604 608.99 0.818332 602.967 0.795846C600.06 0.785119 596.916 0.890607 596.214 0.893928C589.36 0.927663 584.596 0.880933 578.427 0.895269C577.153 0.898244 578.403 0.941 577.319 0.94306C573.615 0.950474 569.723 0.93139 566.184 0.93488C564.596 0.936544 564.889 0.969199 563.428 0.966679C559.933 0.961024 556.842 0.947297 553.434 0.91669C553.123 0.913901 555.218 0.87328 552.631 0.871769C548.446 0.869438 543.25 0.839245 538.435 0.870425C537.006 0.879804 536.95 0.954437 533.878 0.902895C533.234 0.89213 534.056 0.802512 530.478 0.879945C529.877 0.892813 523.867 0.997256 520.917 0.929932C520.139 0.912213 518.153 0.838879 516.435 0.850403C516.202 0.852242 517.135 0.89233 515.712 0.89624C510.694 0.909323 505.435 0.905046 500.279 0.917601C498.903 0.921033 500.953 0.962517 498.901 0.966307C493.259 0.976792 486.215 0.966229 480.698 0.953244C478.663 0.948378 480.069 0.914015 479.921 0.910275C477.541 0.84945 476.134 0.93155 475.344 0.936337C470.431 0.965002 466.69 0.926436 462.161 0.936641C460.911 0.939353 461.798 0.978499 461.549 0.98199C458.969 1.01609 460.891 0.945794 459.257 0.938044C454.682 0.916102 449.582 0.919247 444.955 0.924249C443.255 0.926144 445.166 0.971535 443.64 0.972711C434.613 0.980532 425.229 0.976188 416.419 0.951163C414.76 0.946369 415.804 0.911417 415.458 0.903434C413.075 0.847581 409.583 0.923764 408.779 0.931021C405.126 0.964156 403.707 0.933247 400.48 0.939016C384.718 0.967739 365.256 0.947265 350.377 0.934617C330.989 0.918338 315.944 0.885086 297.455 0.893719C296.28 0.894224 297.465 0.940721 296.452 0.941753C283.373 0.952961 270.498 0.934791 257.394 0.94822C256.318 0.949239 257.868 0.993319 256.142 0.996437C252.602 1.00314 248.117 1.00075 244.538 0.986671C242.792 0.979889 245.134 0.942065 243.376 0.936011C239.284 0.92183 234.898 0.91869 230.695 0.925756C228.906 0.92886 231.605 0.973942 229.28 0.974462C213.443 0.978933 197.889 0.986696 181.885 0.928316C180.788 0.924306 179.826 0.832681 177.493 0.850252C177.317 0.87568 177.327 0.905592 177.25 0.932771C154.195 0.94741 131.376 0.915644 108.257 0.910731C107.282 0.910534 108.967 0.959082 107.08 0.958949C96.157 0.95823 85.5505 0.971678 74.378 0.923423C73.2694 0.918704 73.8382 0.833297 70.5714 0.846214C69.9952 0.848571 65.0751 0.859961 63.803 0.878501C63.6302 0.881297 64.5279 0.921162 62.9424 0.922324C53.729 0.928377 44.0738 0.919275 34.8764 0.894917C33.392 0.890909 34.9727 0.848457 33.9155 0.845234C26.4158 0.822698 18.2583 0.854969 11.092 0.816424C6.2951 0.79047 8.07104 0.717087 5.52205 0.644854C5.16151 0.634663 2.19115 0.633048 2.03754 0.591021C1.64319 0.485341 3.08194 0.369621 2.49158 0.256976C2.36686 0.232714 -1.61123 0.258846 0.744051 0.200214C0.908593 0.19629 3.79273 0.17683 4.50309 0.15694C4.99767 0.143189 4.10642 0.100447 5.11552 0.0828439C6.12453 0.065257 7.23331 0.101085 8.90624 0.0804028C10.5784 0.0594645 9.84315 0.0108415 13.1827 0.00508608ZM927.934 0.68064C925.293 0.639809 924.904 0.789356 927.759 0.753577C927.898 0.75167 928.07 0.682643 927.934 0.68064ZM1247.4 0.657047C1243.95 0.591086 1241.59 0.688075 1244.03 0.739017C1246.46 0.789904 1248.46 0.677043 1247.4 0.657047ZM1283.2 0.608894C1279.17 0.556886 1278.53 0.76895 1282.85 0.726081C1283.1 0.723658 1283.44 0.611914 1283.2 0.608894ZM17.343 0.624286C17.3065 0.6223 15.1713 0.620365 15.1203 0.622333C13.9833 0.669829 18.2529 0.673667 17.343 0.624286ZM1318.72 0.556468C1317.46 0.527782 1313.84 0.560896 1315.4 0.596568C1316.66 0.625264 1320.29 0.592152 1318.72 0.556468ZM790.195 0.521021C790.154 0.518793 788.623 0.516786 788.654 0.529383C788.758 0.569955 790.888 0.558505 790.195 0.521021ZM1379.09 0.554032C1370.17 0.546049 1364.76 0.370873 1374.48 0.390641C1376.24 0.394217 1370.69 0.446503 1372.93 0.462296C1377.02 0.491068 1379.74 0.38108 1383.92 0.440019C1384.68 0.450807 1379.6 0.554877 1379.08 0.554276C1379.08 0.554195 1379.09 0.554113 1379.09 0.554032ZM926.413 0.501014C926.36 0.499036 924.241 0.497161 924.19 0.499122C923.043 0.546599 927.312 0.550404 926.413 0.501014ZM700.871 0.428546C700.754 0.424332 695.836 0.42039 695.676 0.424273C693.11 0.50191 703.053 0.510109 700.871 0.428546ZM1069.13 0.391591C1071.44 0.343829 1074.21 0.338205 1076.05 0.398183C1073.75 0.394999 1071.44 0.39453 1069.13 0.391591Z" fill="white"/>
</svg>
