<svg width="60" height="60" viewBox="0 0 60 60" fill="none" xmlns="http://www.w3.org/2000/svg">
<path d="M30 0C13.4297 0 0 13.4297 0 30C0 46.5703 13.4297 60 30 60C46.5703 60 60 46.5703 60 30C60 13.4297 46.5703 0 30 0ZM48.7266 48.7148C46.2891 51.1523 43.4648 53.0625 40.3125 54.3867C37.0547 55.7695 33.5859 56.4609 30 56.4609C26.4258 56.4609 22.957 55.7578 19.6875 54.3867C16.5352 53.0508 13.6992 51.1406 11.2734 48.7148C8.83594 46.2773 6.92578 43.4531 5.60156 40.3008C4.21875 37.043 3.51562 33.5742 3.51562 30C3.51562 26.4258 4.21875 22.957 5.58984 19.6875C6.92578 16.5352 8.83594 13.6992 11.2617 11.2734C13.7109 8.83594 16.5352 6.92578 19.6875 5.58984C22.957 4.21875 26.4258 3.51562 30 3.51562C33.5742 3.51562 37.043 4.21875 40.3125 5.58984C43.4648 6.92578 46.3008 8.83594 48.7266 11.2617C51.1641 13.6992 53.0742 16.5234 54.3984 19.6758C55.7812 22.9336 56.4727 26.4023 56.4727 29.9883C56.4727 33.5625 55.7695 37.0312 54.3984 40.3008C53.0625 43.4531 51.1523 46.2891 48.7266 48.7148Z" fill="white"/>
</svg>
